<svg xmlns="http://www.w3.org/2000/svg" width="512" height="512" viewBox="0 0 512 512" fill="none">
  <defs>
    <linearGradient id="bg" x1="64" y1="48" x2="448" y2="464" gradientUnits="userSpaceOnUse">
      <stop offset="0" stop-color="#6EC8FF"/>
      <stop offset="1" stop-color="#1F7BFF"/>
    </linearGradient>
    <linearGradient id="glass" x1="120" y1="96" x2="392" y2="384" gradientUnits="userSpaceOnUse">
      <stop offset="0" stop-color="#FFFFFF" stop-opacity="0.34"/>
      <stop offset="1" stop-color="#FFFFFF" stop-opacity="0.10"/>
    </linearGradient>
    <filter id="shadow" x="20" y="20" width="472" height="472" filterUnits="userSpaceOnUse" color-interpolation-filters="sRGB">
      <feDropShadow dx="0" dy="16" stdDeviation="18" flood-color="#0B3A7A" flood-opacity="0.18"/>
    </filter>
  </defs>

  <g filter="url(#shadow)">
    <rect x="44" y="44" width="424" height="424" rx="104" fill="url(#bg)"/>
    <rect x="44" y="44" width="424" height="424" rx="104" fill="url(#glass)"/>
    <path d="M86 128C86 104.804 104.804 86 128 86H330C341.141 86 351.826 90.425 359.704 98.301L413.699 152.296C421.575 160.174 426 170.859 426 182V384C426 407.196 407.196 426 384 426H128C104.804 426 86 407.196 86 384V128Z" fill="white" fill-opacity="0.14" stroke="white" stroke-opacity="0.20" stroke-width="2"/>
  </g>

  <!-- QR locator blocks -->
  <g fill="#FFFFFF">
    <rect x="124" y="156" width="88" height="88" rx="16" fill-opacity="0.96"/>
    <rect x="140" y="172" width="56" height="56" rx="10" fill="#2E8FFF"/>
    <rect x="152" y="184" width="32" height="32" rx="6" fill="#FFFFFF"/>

    <rect x="300" y="156" width="88" height="88" rx="16" fill-opacity="0.96"/>
    <rect x="316" y="172" width="56" height="56" rx="10" fill="#2E8FFF"/>
    <rect x="328" y="184" width="32" height="32" rx="6" fill="#FFFFFF"/>

    <rect x="124" y="292" width="88" height="88" rx="16" fill-opacity="0.96"/>
    <rect x="140" y="308" width="56" height="56" rx="10" fill="#2E8FFF"/>
    <rect x="152" y="320" width="32" height="32" rx="6" fill="#FFFFFF"/>
  </g>

  <!-- QR inner modules -->
  <g fill="#FFFFFF" fill-opacity="0.92">
    <rect x="246" y="280" width="18" height="18" rx="4"/>
    <rect x="272" y="280" width="18" height="18" rx="4"/>
    <rect x="298" y="280" width="18" height="18" rx="4"/>
    <rect x="246" y="306" width="18" height="18" rx="4"/>
    <rect x="298" y="306" width="18" height="18" rx="4"/>
    <rect x="324" y="306" width="18" height="18" rx="4"/>
    <rect x="246" y="332" width="18" height="18" rx="4"/>
    <rect x="272" y="332" width="18" height="18" rx="4"/>
    <rect x="324" y="332" width="18" height="18" rx="4"/>
    <rect x="272" y="358" width="18" height="18" rx="4"/>
    <rect x="298" y="358" width="18" height="18" rx="4"/>
  </g>

  <!-- WiFi symbol -->
  <g stroke="#FFFFFF" stroke-linecap="round" stroke-width="16" opacity="0.98">
    <path d="M168 268C215 225 297 225 344 268"/>
    <path d="M198 301C229 274 283 274 314 301"/>
    <path d="M229 334C246 320 266 320 283 334"/>
  </g>
  <circle cx="256" cy="362" r="12" fill="#FFFFFF"/>
</svg>
